<?xml version="1.0" encoding="utf-8"?>
<!-- Generator: Adobe Illustrator 21.1.0, SVG Export Plug-In . SVG Version: 6.00 Build 0)  -->
<svg version="1.1" id="Layer_1" xmlns="http://www.w3.org/2000/svg" xmlns:xlink="http://www.w3.org/1999/xlink" x="0px" y="0px"
	 viewBox="0 0 400 400" style="enable-background:new 0 0 400 400;" xml:space="preserve">
<style type="text/css">
	.st0{fill:#446CA9;}
	.st1{fill:#76C4D5;}
</style>
<g id="XMLID_15_">
	<g id="XMLID_78_">
		<polygon id="XMLID_82_" class="st0" points="66.7,261.9 13.2,261.9 13.2,386.6 137.9,386.6 137.9,333.2 66.7,333.2 		"/>
		<polygon id="XMLID_81_" class="st0" points="333.8,262.3 333.8,333.2 262.9,333.2 262.6,332.8 262.6,386.6 387.2,386.6 
			387.2,261.9 333.4,261.9 		"/>
		<polygon id="XMLID_80_" class="st0" points="13.2,137.3 67.1,137.3 66.7,136.9 66.7,66 66.7,66 137.5,66 137.9,66.4 137.9,12.6 
			13.2,12.6 		"/>
		<polygon id="XMLID_79_" class="st0" points="262.6,12.6 262.6,66 333.8,66 333.8,137.3 387.2,137.3 387.2,12.6 		"/>
	</g>
	<g id="XMLID_73_">
		<polygon id="XMLID_77_" class="st1" points="256,137.3 184.7,66 262.6,66 262.6,12.6 137.9,12.6 137.9,66.4 208.7,137.3 		"/>
		<polygon id="XMLID_76_" class="st1" points="191.7,261.9 144.5,261.9 203.5,321 215.7,333.2 191.3,333.2 137.9,333.2 137.9,386.6 
			262.6,386.6 262.6,332.8 227.1,297.3 		"/>
		<polygon id="XMLID_75_" class="st1" points="333.8,137.3 333.8,190.7 333.8,215.1 321.6,202.9 262.6,143.9 262.6,191.1 298,226.5 
			333.4,261.9 387.2,261.9 387.2,137.3 		"/>
		<polygon id="XMLID_74_" class="st1" points="137.9,208.1 67.1,137.3 13.2,137.3 13.2,261.9 66.7,261.9 66.7,184.1 137.9,255.3 		
			"/>
	</g>
</g>
</svg>
