<?xml version="1.0" encoding="utf-8"?>
<!-- Generator: Adobe Illustrator 17.1.0, SVG Export Plug-In . SVG Version: 6.00 Build 0)  -->
<!DOCTYPE svg PUBLIC "-//W3C//DTD SVG 1.1//EN" "http://www.w3.org/Graphics/SVG/1.1/DTD/svg11.dtd">
<svg version="1.1" xmlns="http://www.w3.org/2000/svg" xmlns:xlink="http://www.w3.org/1999/xlink" x="0px" y="0px" width="24px"
     height="24px" viewBox="0 0 24 24" enable-background="new 0 0 24 24" xml:space="preserve">
<g id="Header">
    <g>
        <rect x="-618" y="-2616" fill="none" width="1400" height="3600"/>
    </g>
</g>
<g id="Label">
</g>
<g id="Icon">
    <g>
        <path d="M17.6,6.4C16.2,4.9,14.2,4,12,4c-4.4,0-8,3.6-8,8s3.6,8,8,8c3.7,0,6.8-2.6,7.7-6h-2.1c-0.8,2.3-3,4-5.6,4
            c-3.3,0-6-2.7-6-6s2.7-6,6-6c1.7,0,3.1,0.7,4.2,1.8L13,11h7V4L17.6,6.4z"/>
        <rect fill="none" width="24" height="24"/>
    </g>
</g>
<g id="Grid" display="none">
    <g display="inline">
    </g>
</g>
</svg>
