<svg width="24" height="24" viewBox="0 0 24 24"  fill="#718096" xmlns="http://www.w3.org/2000/svg">
<path fill-rule="evenodd" clip-rule="evenodd" d="M12 2C6.48 2 2 6.48 2 12C2 17.52 6.48 22 12 22C17.52 22 22 17.52 22 12C22 6.48 17.52 2 12 2ZM12 20C7.59 20 4 16.41 4 12C4 7.59 7.59 4 12 4C16.41 4 20 7.59 20 12C20 16.41 16.41 20 12 20Z"/>
<path fill-rule="evenodd" clip-rule="evenodd" d="M13.4901 11.38C13.9201 10.16 13.6601 8.74002 12.6801 7.76002C11.5701 6.65002 9.89008 6.46002 8.58008 7.17002L10.9301 9.52002L9.52008 10.93L7.17008 8.58002C6.46008 9.90002 6.65008 11.57 7.76008 12.68C8.74008 13.66 10.1601 13.92 11.3801 13.49L14.7901 16.9C14.9901 17.1 15.3001 17.1 15.5001 16.9L16.9001 15.5C17.1001 15.3 17.1001 14.99 16.9001 14.79L13.4901 11.38Z"/>
</svg>
