<svg width="24" height="24" viewBox="0 0 24 24"  fill="#718096" xmlns="http://www.w3.org/2000/svg">
<path fill-rule="evenodd" clip-rule="evenodd" d="M5 3H19C20.1 3 21 3.9 21 5V19C21 20.1 20.1 21 19 21H5C3.9 21 3 20.1 3 19V5C3 3.9 3.9 3 5 3ZM5 19H19V5H5V19ZM14.4983 16.7744C15.1728 16.5283 15.6946 16.1842 16.0637 15.7422V11.7705H12.1467V13.2812H14.0129V14.9971C13.6848 15.3252 13.1357 15.4893 12.3655 15.4893C11.5999 15.4893 11.0188 15.2227 10.6223 14.6895C10.2258 14.1562 10.0276 13.3678 10.0276 12.3242V11.6885C10.0321 10.654 10.2167 9.87467 10.5813 9.35059C10.9459 8.8265 11.4768 8.56445 12.1741 8.56445C12.7209 8.56445 13.1493 8.69661 13.4592 8.96094C13.7737 9.22526 13.9765 9.64225 14.0676 10.2119H16.0637C15.9407 9.13639 15.5465 8.31836 14.8811 7.75781C14.2157 7.19271 13.2929 6.91016 12.1125 6.91016C11.2649 6.91016 10.5243 7.10384 9.89087 7.49121C9.26196 7.87402 8.77889 8.43001 8.44165 9.15918C8.10897 9.88379 7.94263 10.7428 7.94263 11.7363V12.4131C7.95174 13.3792 8.13175 14.2201 8.48267 14.9355C8.83813 15.651 9.33944 16.1979 9.98657 16.5762C10.6383 16.9499 11.3948 17.1367 12.2561 17.1367C13.0764 17.1367 13.8238 17.016 14.4983 16.7744Z"/>
</svg>
