<svg width="24" height="24" viewBox="0 0 24 24"  fill="#718096" xmlns="http://www.w3.org/2000/svg">
<path fill-rule="evenodd" clip-rule="evenodd" d="M5 3H19C20.1 3 21 3.9 21 5V19C21 20.1 20.1 21 19 21H5C3.9 21 3 20.1 3 19V5C3 3.9 3.9 3 5 3ZM5 19H19V5H5V19ZM10.4395 13.3564H12.0732L13.9395 17H16.1406V16.9043L13.9873 12.8369C14.5843 12.568 15.0286 12.208 15.3203 11.7568C15.6165 11.3011 15.7646 10.7337 15.7646 10.0547C15.7646 9.09766 15.4456 8.3571 14.8076 7.83301C14.1696 7.30892 13.2627 7.04688 12.0869 7.04688H8.38867V17H10.4395V13.3564ZM12.0938 11.6953H10.4395V8.70801H12.0869C12.6383 8.70801 13.0462 8.84245 13.3105 9.11133C13.5794 9.38021 13.7139 9.74935 13.7139 10.2188C13.7139 10.679 13.5726 11.0413 13.29 11.3057C13.0075 11.5654 12.6087 11.6953 12.0938 11.6953Z"/>
</svg>
