<svg width="24" height="24" viewBox="0 0 24 24"  fill="#718096" xmlns="http://www.w3.org/2000/svg">
<path fill-rule="evenodd" clip-rule="evenodd" d="M5 3H19C20.1 3 21 3.9 21 5V19C21 20.1 20.1 21 19 21H5C3.9 21 3 20.1 3 19V5C3 3.9 3.9 3 5 3ZM5 19H19V5H5V19ZM13.1396 13.5C13.4131 13.7051 13.5498 14.0013 13.5498 14.3887C13.5498 14.7441 13.4131 15.0221 13.1396 15.2227C12.8662 15.4186 12.4857 15.5166 11.998 15.5166C10.6855 15.5166 10.0293 14.9674 10.0293 13.8691H7.97168C7.97168 14.5117 8.13574 15.0768 8.46387 15.5645C8.79655 16.0521 9.27734 16.4372 9.90625 16.7197C10.5352 16.9977 11.2324 17.1367 11.998 17.1367C13.1009 17.1367 13.9782 16.8929 14.6299 16.4053C15.2816 15.9131 15.6074 15.2363 15.6074 14.375C15.6074 13.6003 15.3408 12.9531 14.8076 12.4336C14.2744 11.9141 13.4245 11.4788 12.2578 11.1279C11.6243 10.9365 11.1436 10.7314 10.8154 10.5127C10.4919 10.2939 10.3301 10.0228 10.3301 9.69922C10.3301 9.35286 10.4691 9.07487 10.7471 8.86523C11.0251 8.65104 11.4147 8.54395 11.916 8.54395C12.4355 8.54395 12.8389 8.67155 13.126 8.92676C13.4131 9.17741 13.5566 9.5306 13.5566 9.98633H15.6074C15.6074 9.38932 15.4525 8.85612 15.1426 8.38672C14.8372 7.91732 14.4066 7.55501 13.8506 7.2998C13.2946 7.04004 12.6611 6.91016 11.9502 6.91016C11.2438 6.91016 10.6058 7.02865 10.0361 7.26562C9.47103 7.5026 9.03581 7.83301 8.73047 8.25684C8.42969 8.67611 8.2793 9.15462 8.2793 9.69238C8.2793 10.7269 8.8444 11.5495 9.97461 12.1602C10.3893 12.3835 10.9521 12.6113 11.6631 12.8438C12.374 13.0716 12.8662 13.2904 13.1396 13.5Z"/>
</svg>
