<svg width="24" height="24" viewBox="0 0 24 24"  fill="#718096" xmlns="http://www.w3.org/2000/svg">
<path d="M6.18788 11.8543L8.45402 14.1204L7.13552 15.4389L4.86938 13.1728C2.58152 10.8849 2.58152 7.1711 4.86938 4.88324C7.15724 2.59539 10.8711 2.59539 13.1589 4.88324L15.4251 7.14938L14.1066 8.46788L11.8404 6.20174C10.2855 4.64681 7.74282 4.64681 6.18788 6.20174C4.63294 7.75668 4.63294 10.2994 6.18788 11.8543Z"/>
<path d="M9.34271 8.03807L15.8895 14.5849L14.571 15.9034L8.02421 9.35657L9.34271 8.03807Z"/>
<path d="M17.7258 12.0871L15.5208 9.8821L16.8393 8.5636L19.0443 10.7686C21.3322 13.0565 21.3322 16.7703 19.0443 19.0582C16.7565 21.3461 13.0426 21.3461 10.7548 19.0582L8.54973 16.8532L9.86823 15.5347L12.0733 17.7397C13.6282 19.2946 16.1709 19.2946 17.7258 17.7397C19.2808 16.1848 19.2808 13.6421 17.7258 12.0871Z"/>
</svg>
