<svg xmlns="http://www.w3.org/2000/svg" width="24" height="24" viewBox="0 0 22 24"><path d="M11.58.045a4.17 4.17 0 0 0-2.396 1.08c-.866.793-1.364 2.017-1.285 3.151.119 1.693 1.229 3.084 2.891 3.622l.21.068v3.911l-2.95.012-2.95.011-.228.112a1.533 1.533 0 0 0-.406.31c-.303.337-.306.358-.306 2.141v1.569l-.29.088c-1.261.381-2.317 1.458-2.69 2.743-.783 2.701 1.466 5.346 4.33 5.091a4.09 4.09 0 0 0 2.578-1.225 4.073 4.073 0 0 0 1.04-1.842c.126-.46.126-1.372 0-1.867a4.145 4.145 0 0 0-2.738-2.903l-.27-.088V13.88h11.76v2.149l-.27.088a4.14 4.14 0 0 0-2.738 2.903c-.126.495-.126 1.407 0 1.867.198.73.531 1.319 1.04 1.842 1.87 1.924 5.121 1.554 6.495-.738a3.953 3.953 0 0 0-.527-4.767 4.16 4.16 0 0 0-1.75-1.104l-.29-.088v-1.569c0-1.783-.003-1.804-.306-2.141a1.533 1.533 0 0 0-.406-.31L18.9 11.9l-2.95-.011-2.95-.012V7.966l.21-.068c1.394-.451 2.429-1.525 2.769-2.873.245-.967.137-1.893-.326-2.793A4.106 4.106 0 0 0 13.094.166c-.256-.07-.412-.093-.994-.142a3.907 3.907 0 0 0-.52.021m1.023 2.019c1.012.297 1.659 1.255 1.518 2.247-.075.53-.25.861-.654 1.234-.82.76-2.114.76-2.934 0-.404-.373-.579-.704-.654-1.234-.138-.97.454-1.882 1.441-2.22.326-.112.95-.125 1.283-.027M5.84 17.999c.522.173.985.574 1.222 1.059C7.738 20.441 6.723 22 5.147 22c-.648 0-1.118-.185-1.544-.607-.425-.421-.603-.844-.603-1.43.001-.608.172-1.024.596-1.447.288-.287.704-.519 1.064-.592.305-.062.879-.025 1.18.075m13.463-.076c.388.07.8.292 1.101.593.419.418.596.848.596 1.444 0 .59-.178 1.012-.603 1.433-.424.421-.897.607-1.535.607-.644-.001-1.076-.177-1.526-.62-.349-.344-.517-.671-.585-1.138-.208-1.422 1.074-2.587 2.552-2.319" fill-rule="evenodd"/></svg>