<svg width="24" height="24" viewBox="0 0 24 24"  fill="#718096" xmlns="http://www.w3.org/2000/svg">
<path d="M21.62 17.9915L14.5302 10.9017C15.4602 8.56167 14.9802 5.80167 13.0902 3.90167C10.7902 1.60167 7.21021 1.39167 4.66021 3.25167L8.50021 7.10167L7.08021 8.51167L3.25021 4.68167C1.39021 7.22167 1.60021 10.8117 3.90021 13.1017C5.76021 14.9617 8.47021 15.4517 10.7902 14.5817L17.91 21.7015C18.3 22.0915 18.93 22.0915 19.32 21.7015L21.62 19.4015C22.02 19.0215 22.02 18.3915 21.62 17.9915ZM18.62 19.5915L11.1502 12.1217C10.5402 12.5717 9.86021 12.8417 9.15021 12.9417C7.79021 13.1417 6.36021 12.7317 5.32021 11.6917C4.37021 10.7517 3.93021 9.49167 4.00021 8.25167L7.09021 11.3417L11.3302 7.10167L8.24021 4.01167C9.48021 3.94167 10.7302 4.38167 11.6802 5.32167C12.7602 6.40167 13.1702 7.89167 12.9202 9.28167C12.8002 9.99167 12.5002 10.6517 12.0402 11.2417L19.5 18.7015L18.62 19.5915Z"/>
</svg>
